<svg version="1.1" id="Layer_1" xmlns="http://www.w3.org/2000/svg" xmlns:xlink="http://www.w3.org/1999/xlink" x="0px" y="0px"
	 viewBox="0 0 738.38 247.42" style="enable-background:new 0 0 738.38 247.42;" xml:space="preserve">
<style type="text/css">
	.st0{fill:#FFFFFF;}
</style>
<g>
	<g>
		<path class="st0" d="M305.03,10.77v172.95h32.61V23.05C337.64,16.26,323.05,10.77,305.03,10.77z"/>
		<path class="st0" d="M352.99,23.05v160.67h32.61V10.77C367.58,10.77,352.99,16.26,352.99,23.05z"/>
		<rect x="257.06" y="71.55" class="st0" width="32.61" height="112.17"/>
		<path class="st0" d="M257.06,23.05v25.28h32.61V10.77C271.65,10.77,257.06,16.26,257.06,23.05z"/>
		<path class="st0" d="M188.86,74.47c-7.28-0.02-14.21,1.44-20.53,4.08V29.67c0-6.79-14.59-18.9-32.61-18.9v85.64
			c3.66,7.44,6.69,13.98,6.69,13.98s-2.67,2.22-6.69,5.56h0c-5.7,4.73-14.12,11.73-21.55,17.9c-12.69,10.53-26.57,9.73-26.57,9.73
			s-13.88,0.8-26.57-9.73c-12.69-10.54-28.25-23.46-28.25-23.46s12.78-27.59,17.51-33.91c-3.42-6.47-1.44-15.68-0.46-19.56
			c0.96-3.8,2.07-6.88,8.34-3.24c5.15,2.99,10.82,8.16,13.81,11.05c4.15-0.49,9.26-0.78,15.61-0.78c6.36,0,11.46,0.29,15.62,0.78
			c0.52-0.5,1.15-1.09,1.82-1.71c0-0.01,0-0.01,0-0.02c20.06-19.74,14.23-48.77,10.37-61.35c-0.59-1.94-3.16-2.25-4.24-0.54
			c-6.16,9.68-23.09,9.68-24.56,9.66c-0.04,0-0.07,0-0.11,0C38.79,10.77,0,49.57,0,97.25c0,47.68,38.79,86.48,86.48,86.48
			c17.91,0,35.03-5.66,49.24-15.52v15.52h32.61v-55.76c0-11.04,8.57-20.45,19.6-20.87c11.6-0.44,21.17,8.87,21.17,20.37v56.26h32.61
			v-55.39C241.71,98.98,218.22,74.55,188.86,74.47z"/>
		<path class="st0" d="M453.96,74.47c-7.22,0-14.11,1.46-20.38,4.08v-55.5c0-6.79-14.59-12.28-32.61-12.28v172.95h32.61v-56.26
			c0-11.24,9.14-20.38,20.38-20.38c11.24,0,20.38,9.15,20.38,20.38v56.26h32.61v-56.26C506.95,98.24,483.18,74.47,453.96,74.47z"/>
		<path class="st0" d="M568.04,74.47c-30.12,0-54.63,24.51-54.63,54.63c0,30.12,24.5,54.63,54.63,54.63
			c30.12,0,54.63-24.51,54.63-54.63C622.67,98.97,598.16,74.47,568.04,74.47z M568.04,151.11c-12.14,0-22.01-9.88-22.01-22.02
			c0-12.14,9.88-22.02,22.01-22.02c12.14,0,22.01,9.88,22.01,22.02C590.05,141.23,580.18,151.11,568.04,151.11z"/>
		<path class="st0" d="M683.75,74.47h-22.02h-3.52h-29.09v172.95c18.03,0,32.61-5.49,32.61-12.28v-56.07
			c6.74,2.98,14.19,4.65,22.02,4.65c30.12,0,54.63-24.51,54.63-54.63C738.38,98.97,713.87,74.47,683.75,74.47z M683.75,151.11
			c-12.14,0-22.02-9.88-22.02-22.02c0-12.14,9.88-22.02,22.02-22.02c12.14,0,22.02,9.88,22.02,22.02
			C705.77,141.23,695.89,151.11,683.75,151.11z"/>
	</g>
	<g>
		<path class="st0" d="M434.33,244.19l-0.05-22l-10.79,18.12h-3.82l-10.74-17.65v21.53h-7.96v-36.66h7.02l13.72,22.78l13.52-22.78
			h6.96l0.11,36.66H434.33z"/>
		<path class="st0" d="M460.13,228.05v-20.53h8.49v20.22c0,6.96,3.04,9.85,8.17,9.85c5.19,0,8.17-2.88,8.17-9.85v-20.22h8.38v20.53
			c0,10.79-6.18,16.76-16.6,16.76C466.31,244.81,460.13,238.84,460.13,228.05z"/>
		<path class="st0" d="M508.29,240.57l2.88-6.39c3.09,2.25,7.7,3.82,12.1,3.82c5.03,0,7.07-1.67,7.07-3.93
			c0-6.86-21.32-2.15-21.32-15.77c0-6.23,5.03-11.42,15.45-11.42c4.61,0,9.32,1.1,12.73,3.25l-2.62,6.44
			c-3.4-1.94-6.91-2.88-10.16-2.88c-5.03,0-6.96,1.88-6.96,4.19c0,6.76,21.32,2.1,21.32,15.55c0,6.13-5.08,11.37-15.56,11.37
			C517.41,244.81,511.54,243.09,508.29,240.57z"/>
		<path class="st0" d="M554.05,207.52h8.48v36.66h-8.48V207.52z"/>
		<path class="st0" d="M578.37,225.86c0-11.06,8.49-18.96,19.91-18.96c6.34,0,11.63,2.3,15.09,6.49l-5.45,5.03
			c-2.46-2.83-5.55-4.29-9.22-4.29c-6.86,0-11.73,4.82-11.73,11.73c0,6.91,4.88,11.73,11.73,11.73c3.67,0,6.76-1.47,9.22-4.35
			l5.45,5.03c-3.46,4.24-8.75,6.55-15.14,6.55C586.85,244.81,578.37,236.91,578.37,225.86z"/>
	</g>
</g>
</svg>
