<svg version="1.1" id="Layer_1" xmlns="http://www.w3.org/2000/svg" xmlns:xlink="http://www.w3.org/1999/xlink" x="0px" y="0px"
	 viewBox="0 0 738.4 247.4" style="enable-background:new 0 0 738.4 247.4;" xml:space="preserve">
<g>
	<g>
		<path d="M434.3,244.2l-0.1-22l-10.8,18.1h-3.8l-10.7-17.7v21.5h-8v-36.7h7l13.7,22.8l13.5-22.8h7l0.1,36.7H434.3z"/>
		<path d="M460.1,228.1v-20.5h8.5v20.2c0,7,3,9.8,8.2,9.8c5.2,0,8.2-2.9,8.2-9.8v-20.2h8.4v20.5c0,10.8-6.2,16.8-16.6,16.8
			C466.3,244.8,460.1,238.8,460.1,228.1z"/>
		<path d="M508.3,240.6l2.9-6.4c3.1,2.3,7.7,3.8,12.1,3.8c5,0,7.1-1.7,7.1-3.9c0-6.9-21.3-2.1-21.3-15.8c0-6.2,5-11.4,15.5-11.4
			c4.6,0,9.3,1.1,12.7,3.2l-2.6,6.4c-3.4-1.9-6.9-2.9-10.2-2.9c-5,0-7,1.9-7,4.2c0,6.8,21.3,2.1,21.3,15.6c0,6.1-5.1,11.4-15.6,11.4
			C517.4,244.8,511.5,243.1,508.3,240.6z"/>
		<path d="M554,207.5h8.5v36.7H554V207.5z"/>
		<path d="M578.4,225.9c0-11.1,8.5-19,19.9-19c6.3,0,11.6,2.3,15.1,6.5l-5.4,5c-2.5-2.8-5.6-4.3-9.2-4.3c-6.9,0-11.7,4.8-11.7,11.7
			c0,6.9,4.9,11.7,11.7,11.7c3.7,0,6.8-1.5,9.2-4.3l5.4,5c-3.5,4.2-8.7,6.5-15.1,6.5C586.9,244.8,578.4,236.9,578.4,225.9z"/>
	</g>
	<path d="M305,10.8v173h32.6V23.1C337.6,16.3,323.1,10.8,305,10.8z"/>
	<path d="M353,23.1v160.7h32.6v-173C367.6,10.8,353,16.3,353,23.1z"/>
	<rect x="257.1" y="71.6" width="32.6" height="112.2"/>
	<path d="M257.1,23.1v25.3h32.6V10.8C271.6,10.8,257.1,16.3,257.1,23.1z"/>
	<path d="M183.3,74.8c-5.2,0.5-10.2,1.8-14.9,3.8c0,0-0.1,0-0.1,0V29.7c0-6.8-14.6-18.9-32.6-18.9c0,0,0,0,0,0v85.6c0,0,0,0,0,0
		c3.5,7.2,6.5,13.5,6.7,14c0,0,0,0,0,0c-0.3,0.2-2.9,2.4-6.7,5.5h0c-5.7,4.7-14.1,11.7-21.6,17.9c-12.7,10.5-26.6,9.7-26.6,9.7
		s-13.9,0.8-26.6-9.7c-12.4-10.3-27.6-22.9-28.2-23.4c0,0,0,0,0,0c0.4-0.9,12.8-27.6,17.5-33.9c0,0,0,0,0,0
		c-3.4-6.5-1.4-15.7-0.4-19.5c1-3.8,2.1-6.9,8.3-3.2c5.1,3,10.8,8.1,13.8,11c0,0,0,0,0,0c4.1-0.5,9.2-0.8,15.6-0.8
		c6.4,0,11.4,0.3,15.6,0.8c0,0,0,0,0,0c0.5-0.5,1.1-1.1,1.8-1.7c0,0,0,0,0,0c20.1-19.7,14.2-48.8,10.4-61.4
		c-0.6-1.9-3.2-2.2-4.2-0.5c-6.2,9.7-23.1,9.7-24.6,9.7c0,0-0.1,0-0.1,0C38.8,10.8,0,49.6,0,97.3c0,47.7,38.8,86.5,86.5,86.5
		c17.9,0,35-5.6,49.2-15.5c0,0,0.1,0,0.1,0v15.4c0,0,0,0,0,0h32.5c0,0,0,0,0,0V128c0-11.1,8.6-20.5,19.6-20.9
		c11.6-0.4,21.1,8.9,21.1,20.4v56.2c0,0,0,0,0,0h32.5c0,0,0,0,0,0v-55.2C241.7,96.9,214.7,71.5,183.3,74.8z"/>
	<path d="M454,74.5c-7.2,0-14.1,1.5-20.4,4.1V23.1c0-6.8-14.6-12.3-32.6-12.3v173h32.6v-56.3c0-11.2,9.1-20.4,20.4-20.4
		c11.2,0,20.4,9.1,20.4,20.4v56.3H507v-56.3C507,98.2,483.2,74.5,454,74.5z"/>
	<path d="M568,74.5c-30.1,0-54.6,24.5-54.6,54.6c0,30.1,24.5,54.6,54.6,54.6c30.1,0,54.6-24.5,54.6-54.6
		C622.7,99,598.2,74.5,568,74.5z M568,151.1c-12.1,0-22-9.9-22-22c0-12.1,9.9-22,22-22c12.1,0,22,9.9,22,22
		C590.1,141.2,580.2,151.1,568,151.1z"/>
	<path d="M682.9,74.5h-21.2h-3.5h-29.1v173c18,0,32.6-5.5,32.6-12.3v-56.1c6.7,3,14.2,4.7,22,4.7c31,0,56-25.9,54.6-57.3
		C736.9,97.2,712.2,74.5,682.9,74.5z M686,151c-13.9,1.4-25.5-10.3-24.2-24.2c1-10.3,9.4-18.6,19.6-19.6
		c13.9-1.4,25.5,10.3,24.2,24.2C704.6,141.6,696.3,150,686,151z"/>
</g>
</svg>
