<svg id="Calque_1" data-name="Calque 1" xmlns="http://www.w3.org/2000/svg" viewBox="0 0 92 108.05"><title>Icons Youtube Section-02</title><path d="M30.27,87.12h1.89l3.29,4.47V87.12h1.88v7.56H35.45l-3.29-4.47v4.47H30.27Z" style="fill:#fff"/><path d="M40.35,90.89a4.07,4.07,0,1,1,4.06,3.92A4,4,0,0,1,40.35,90.89Zm6.19,0a2.13,2.13,0,1,0-2.13,2.21A2.19,2.19,0,0,0,46.54,90.89Z" style="fill:#fff"/><path d="M50.67,87.12h2l1.16,4.72,1.57-4.72h2L59,91.84l1.15-4.72h2L60,94.68H58.13l-1.69-4.79-1.68,4.79H52.87Z" style="fill:#fff"/><path d="M8.57,100.32h2L11.76,105l1.57-4.72h2L16.92,105l1.15-4.72h2l-2.19,7.56H16l-1.69-4.79-1.68,4.79H10.77Z" style="fill:#fff"/><path d="M27.31,106.78h-3l-.44,1.1H21.77l3-7.56h2.11l3,7.56H27.75Zm-.58-1.48L25.82,103l-.92,2.32Z" style="fill:#fff"/><path d="M33.67,102h-2.3v-1.68h6.47V102H35.55v5.88H33.67Z" style="fill:#fff"/><path d="M40.42,104.09a4,4,0,0,1,4.06-3.9,4.13,4.13,0,0,1,3,1.3l-1.38,1.22a2.11,2.11,0,0,0-1.63-.82,2.21,2.21,0,0,0,0,4.41,2.15,2.15,0,0,0,1.64-.81l1.37,1.21a4.14,4.14,0,0,1-3,1.31A4,4,0,0,1,40.42,104.09Z" style="fill:#fff"/><path d="M57.14,100.32v7.56H55.26v-3H52.17v3H50.29v-7.56h1.88v2.86h3.09v-2.86Z" style="fill:#fff"/><path d="M60.45,100.32h1.88v7.56H60.45Z" style="fill:#fff"/><path d="M65.67,100.32h1.88l3.29,4.47v-4.47h1.88v7.56H70.84l-3.29-4.47v4.47H65.67Z" style="fill:#fff"/><path d="M79.5,103.54h3.44v3.16A4.27,4.27,0,0,1,79.85,108a3.91,3.91,0,1,1,0-7.82,4.3,4.3,0,0,1,3.09,1.3l-1.38,1.22a2.2,2.2,0,1,0-1.71,3.59,2.28,2.28,0,0,0,1.26-.39v-1H79.5Z" style="fill:#fff"/><path d="M20,21a12,12,0,0,0-12,12,11.26,11.26,0,0,0,4.87,9.32A20,20,0,0,0,0,61a2.11,2.11,0,0,0,2.06,2,2.11,2.11,0,0,0,2-2.06,15.89,15.89,0,0,1,15.83-16A16.07,16.07,0,0,1,33.1,51.62,19.9,19.9,0,0,0,26,67,2,2,0,0,0,30,66.9,16,16,0,1,1,62,66.74a2.26,2.26,0,0,0,2,2.09,2.15,2.15,0,0,0,2-2.15,19.89,19.89,0,0,0-7.06-15,15.94,15.94,0,0,1,29,9.17,2,2,0,0,0,4.06,0,20,20,0,0,0-9.56-17,21.3,21.3,0,0,0-3.24-1.62A11.36,11.36,0,0,0,84,32.92a12,12,0,0,0-24,0,11.32,11.32,0,0,0,4.81,9.29,19.83,19.83,0,0,0-9.15,7.14,19.37,19.37,0,0,0-2.4-1.12A11.46,11.46,0,0,0,58,38.91a12,12,0,0,0-24,0,11.4,11.4,0,0,0,4.84,9.32,18.31,18.31,0,0,0-2.47,1.12,20,20,0,0,0-9.21-7.14A11.26,11.26,0,0,0,32,32.92,12,12,0,0,0,20,21Zm26,10a8,8,0,1,1,0,16,7.75,7.75,0,0,1-8-8A8,8,0,0,1,46,30.93Z" style="fill:#fff"/></svg>