<?xml version="1.0" encoding="utf-8"?>
<!-- Generator: Adobe Illustrator 24.0.0, SVG Export Plug-In . SVG Version: 6.00 Build 0)  -->
<svg version="1.1" id="Layer_1" xmlns="http://www.w3.org/2000/svg" xmlns:xlink="http://www.w3.org/1999/xlink" x="0px" y="0px"
	 viewBox="0 0 104 104" style="enable-background:new 0 0 104 104;" xml:space="preserve">
<style type="text/css">
	.st0{fill:#FFFFFF;}
	.st1{fill:#010103;}
	.st2{fill:none;stroke:#FFFFFF;stroke-width:6;stroke-miterlimit:10;}
	.st3{fill:#83D0E3;}
	.st4{fill:#93D4A9;}
	.st5{fill:#F7D27F;}
	.st6{fill:#F46E63;}
</style>
<path class="st0" d="M81.2,94.5H22.8c-6.6,0-12-5.4-12-12V24.2c0-6.6,5.4-12,12-12h58.3c6.6,0,12,5.4,12,12v58.3
	C93.2,89.1,87.8,94.5,81.2,94.5z"/>
<path d="M75.2,0H28.8C13,0,0,13,0,28.8v46.4C0,91,13,104,28.8,104h46.4C91,104,104,91,104,75.2V28.8C104,13,91,0,75.2,0z M82.9,58.8
	c0,0-8.4,7-15.3,12.7c-5.9,4.9-12.2,5.4-14.6,5.4c-0.4,0-0.8,0-1,0c-0.2,0-0.5,0-1,0c-2.4,0-8.8-0.5-14.6-5.4
	c-6.9-5.7-15.3-12.7-15.3-12.7L20,57.9l0.6-1.3c0.2-0.4,4.1-8.8,7.1-14.4c-1.7-2.3-2.7-5.6-3.1-9.9c-0.1-1.2-0.2-2.9,0.9-4.1
	c0.7-0.8,1.7-1.1,3-1.1c0.6,0,1.2,0.1,2,0.2c4,0.8,8.8,3.1,10.4,3.9c2.9-0.5,6.5-0.8,11.1-0.8c4.5,0,8.2,0.3,11.1,0.8
	c1.6-0.8,6.4-3.1,10.4-3.9c0.7-0.1,1.4-0.2,2-0.2c1.3,0,2.3,0.4,3,1.1c1.1,1.2,1,3,0.9,4.1c-0.3,4.3-1.4,7.6-3.1,9.9
	c3,5.6,6.9,14.1,7.1,14.4l0.6,1.3L82.9,58.8z"/>
</svg>
